<?xml version="1.0" encoding="UTF-8"?>
<svg width="112px" height="116px" viewBox="0 0 112 116" version="1.1" xmlns="http://www.w3.org/2000/svg" xmlns:xlink="http://www.w3.org/1999/xlink">
    <title>cat-footrpint</title>
    <g id="cat-footrpint" stroke="none" stroke-width="1" fill="none" fill-rule="evenodd">
        <circle id="Oval" fill="#000000" cx="34.7844828" cy="86.612069" r="20.387931"></circle>
        <circle id="Oval" fill="#000000" cx="50.2155172" cy="72.387931" r="20.387931"></circle>
        <circle id="Oval" fill="#000000" cx="66.5" cy="85.5" r="21.5"></circle>
        <path d="M24.2947528,59.4313077 C29.7550455,56.768145 31.1393728,48.3719662 27.3867345,40.6779174 C23.6340962,32.9838686 16.1655399,28.9055296 10.7052472,31.5686923 C5.24495453,34.231855 3.86062715,42.6280338 7.61326549,50.3220826 C11.3659038,58.0161314 18.8344601,62.0944704 24.2947528,59.4313077 Z" id="Oval" fill="#000000"></path>
        <path d="M44.3889748,41.8844654 C50.418824,41.144093 54.4612597,33.6560428 53.4180077,25.1594372 C52.3747557,16.6628316 46.6408743,10.3751623 40.6110252,11.1155346 C34.581176,11.855907 30.5387403,19.3439572 31.5819923,27.8405628 C32.6252443,36.3371684 38.3591257,42.6248377 44.3889748,41.8844654 Z" id="Oval" fill="#000000"></path>
        <path d="M66.9682386,45.3227237 C72.7779164,47.0989205 79.5165296,41.902453 82.0193523,33.7160888 C84.522175,25.5297245 81.8414393,17.4534731 76.0317614,15.6772763 C70.2220836,13.9010795 63.4834704,19.097547 60.9806477,27.2839112 C58.477825,35.4702755 61.1585607,43.5465269 66.9682386,45.3227237 Z" id="Oval" fill="#000000"></path>
        <path d="M83.2862514,64.6447455 C88.4382557,67.8640751 96.292201,64.5887544 100.828529,57.3291119 C105.364857,50.0694694 104.865753,41.5745841 99.7137486,38.3552545 C94.5617443,35.1359249 86.707799,38.4112456 82.1714709,45.6708881 C77.6351429,52.9305306 78.1342471,61.4254159 83.2862514,64.6447455 Z" id="Oval" fill="#000000"></path>
    </g>
</svg>